<?xml version="1.0" standalone="no"?>
<!DOCTYPE svg PUBLIC "-//W3C//DTD SVG 20010904//EN"
 "http://www.w3.org/TR/2001/REC-SVG-20010904/DTD/svg10.dtd">
<svg version="1.0" xmlns="http://www.w3.org/2000/svg"
 width="900.000000pt" height="783.000000pt" viewBox="0 0 900.000000 783.000000"
 preserveAspectRatio="xMidYMid meet">
<metadata>
Created by potrace 1.10, written by Peter Selinger 2001-2011
</metadata>
<g transform="translate(0.000000,783.000000) scale(0.100000,-0.100000)"
fill="#ffffff" stroke="none">
<path d="M4200 7483 c-19 -2 -96 -13 -170 -24 -74 -11 -162 -24 -195 -28 -63
-9 -256 -52 -340 -76 -27 -8 -77 -22 -110 -31 -33 -9 -71 -21 -85 -26 -14 -6
-59 -21 -101 -33 -42 -13 -85 -28 -95 -34 -11 -5 -47 -20 -82 -32 -34 -12 -65
-26 -68 -30 -3 -5 -12 -9 -21 -9 -26 0 -376 -176 -508 -255 -169 -102 -310
-199 -451 -311 -211 -167 -434 -379 -596 -567 -77 -88 -251 -319 -319 -422
-64 -97 -186 -305 -232 -395 -21 -41 -42 -82 -46 -90 -20 -37 -71 -151 -99
-220 -16 -41 -39 -98 -50 -125 -18 -45 -80 -227 -116 -345 -8 -25 -22 -79 -31
-120 -9 -41 -23 -97 -30 -125 -8 -27 -21 -95 -30 -150 -9 -55 -22 -138 -30
-185 -50 -298 -50 -872 0 -1170 8 -47 22 -132 31 -190 9 -58 20 -116 26 -130
5 -14 14 -50 19 -80 9 -59 55 -218 110 -380 101 -304 257 -624 459 -945 91
-144 288 -399 411 -530 25 -27 61 -67 79 -87 41 -48 66 -49 75 -6 6 29 45 149
90 277 37 104 147 327 224 455 36 59 71 116 76 125 32 54 192 265 255 336 243
276 542 515 855 685 44 24 87 47 95 51 33 18 196 92 220 100 14 4 50 17 80 29
30 11 84 30 120 41 36 12 83 27 105 34 141 46 463 105 576 105 57 0 97 14 69
24 -8 2 -53 12 -100 21 -47 9 -105 22 -130 30 -148 44 -191 59 -196 66 -3 5
-13 9 -22 9 -27 1 -199 90 -292 152 -182 121 -367 304 -485 479 -36 53 -65 99
-65 103 0 3 -11 23 -24 44 -13 21 -41 78 -61 128 -21 49 -43 103 -50 119 -8
17 -20 58 -29 93 -9 34 -23 88 -31 120 -48 189 -46 557 5 757 31 121 67 227
104 309 13 28 28 62 34 76 63 140 226 357 371 491 74 70 223 189 236 189 4 0
19 8 33 19 23 16 94 57 142 82 104 54 306 123 407 139 34 6 75 15 90 22 18 7
112 11 263 12 245 1 266 -2 465 -54 158 -41 296 -101 460 -198 214 -127 472
-392 591 -607 19 -36 86 -170 95 -190 40 -99 60 -159 93 -290 56 -221 57 -556
1 -775 -71 -283 -147 -444 -313 -670 -97 -131 -286 -309 -422 -396 -73 -46
-80 -51 -185 -102 -170 -84 -268 -118 -445 -154 -52 -10 -104 -22 -115 -25
-20 -6 -20 -6 0 -14 11 -4 45 -8 75 -8 104 -2 411 -58 555 -102 144 -44 275
-90 356 -124 88 -38 279 -132 339 -167 254 -150 437 -292 670 -519 100 -97
309 -355 377 -464 13 -21 108 -178 123 -205 42 -72 170 -344 170 -361 0 -6 6
-23 14 -37 15 -28 65 -174 85 -249 7 -24 17 -43 24 -43 31 0 307 317 432 495
164 236 206 304 332 545 76 144 195 423 238 560 10 30 21 63 26 72 5 10 13 34
18 55 5 21 17 65 26 98 36 124 82 338 101 465 44 290 48 342 48 675 0 250 -4
360 -17 455 -25 194 -45 319 -61 390 -7 36 -19 90 -26 120 -6 30 -18 78 -25
105 -8 28 -22 77 -31 110 -19 68 -74 235 -102 310 -107 286 -306 665 -474 907
-21 29 -52 73 -69 98 -145 208 -456 542 -683 735 -166 140 -441 336 -591 420
-251 140 -384 205 -575 281 -130 51 -277 103 -325 115 -22 5 -76 20 -120 33
-111 33 -329 81 -455 100 -277 42 -336 46 -678 44 -185 0 -353 -3 -372 -5z"/>
</g>
</svg>
